# xmcd CD database file
#
# Track frame offsets:
#	150
#	16067
#	40735
#	66162
#	80342
#	115002
#	134810
#	151570
#	173502
#	189500
#	207472
#
# Disc length: 3015 seconds
#
# Revision: 1
# Processed by: cddbd v1.4PL0 Copyright (c) Steve Scherf et al.
# Submitted via: CDex 1.40Beta9
#
DISCID=850bc50b
DTITLE=Gene Deer - Soul Tender
DYEAR=1995
DGENRE=Blues
TTITLE0=C'mon Back
TTITLE1=Nature of the Beast
TTITLE2=Don't Turn Your Back(on the blues)
TTITLE3=Every'thang Gonna Be Alright
TTITLE4=Midnight Healing
TTITLE5=Be Set Free
TTITLE6=Deep River Blues
TTITLE7=That Ain't Why
TTITLE8=Erin's Blues
TTITLE9=My Baby She's Gone
TTITLE10=Whisper in My Ear(bills to pay, bye bye)
EXTD=YEAR: 1995 ID3G: 0
EXTT0=
EXTT1=
EXTT2=
EXTT3=
EXTT4=
EXTT5=
EXTT6=
EXTT7=
EXTT8=
EXTT9=
EXTT10=
PLAYORDER=
